<svg xmlns="http://www.w3.org/2000/svg" xmlns:xlink="http://www.w3.org/1999/xlink" xmlns:lucid="lucid" width="1360" height="492"><g transform="translate(-120 -140)" lucid:page-tab-id="0_0"><path d="M0 0h1870.87v1322.83H0z" fill="#fff"/><path d="M140 166c0-3.3 2.7-6 6-6h188c3.3 0 6 2.7 6 6v130c0 3.3-2.7 6-6 6H146c-3.3 0-6-2.7-6-6z" fill="#fff"/><path d="M140 166c0-3.3 2.7-6 6-6h188c3.3 0 6 2.7 6 6v130c0 3.3-2.7 6-6 6H146c-3.3 0-6-2.7-6-6zM140 200h200M240 200v102" stroke="#5e5e5e" stroke-width="3" fill="none"/><use xlink:href="#a" transform="matrix(1,0,0,1,150,160) translate(58.580246913580254 24.444444444444443)"/><use xlink:href="#b" transform="matrix(1,0,0,1,145,202.5) translate(36.66666666666667 18.5)"/><use xlink:href="#c" transform="matrix(1,0,0,1,245,202.5) translate(34.47222222222223 18.5)"/><use xlink:href="#d" transform="matrix(1,0,0,1,145,236.5) translate(25.58333333333334 18.5)"/><use xlink:href="#e" transform="matrix(1,0,0,1,245,236.5) translate(18.944444444444454 18.5)"/><use xlink:href="#f" transform="matrix(1,0,0,1,145,270.5) translate(2.2777777777777857 18.5)"/><use xlink:href="#e" transform="matrix(1,0,0,1,245,270.5) translate(18.944444444444454 18.5)"/><path d="M480 166c0-3.3 2.7-6 6-6h308c3.3 0 6 2.7 6 6v232c0 3.3-2.7 6-6 6H486c-3.3 0-6-2.7-6-6z" fill="#fff"/><path d="M480 166c0-3.3 2.7-6 6-6h308c3.3 0 6 2.7 6 6v232c0 3.3-2.7 6-6 6H486c-3.3 0-6-2.7-6-6zM480 200h320M640 200v204" stroke="#5e5e5e" stroke-width="3" fill="none"/><use xlink:href="#g" transform="matrix(1,0,0,1,490,160) translate(95.74074074074076 24.444444444444443)"/><use xlink:href="#h" transform="matrix(1,0,0,1,485,202.5) translate(67.16388888888889 18.544444444444444)"/><use xlink:href="#i" transform="matrix(1,0,0,1,645,202.5) translate(64.35524691358025 18.544444444444444)"/><use xlink:href="#j" transform="matrix(1,0,0,1,485,236.5) translate(0.37438271604939644 18.544444444444444)"/><use xlink:href="#i" transform="matrix(1,0,0,1,645,236.5) translate(64.35524691358025 18.544444444444444)"/><use xlink:href="#k" transform="matrix(1,0,0,1,485,270.5) translate(19.473148148148155 18.544444444444444)"/><use xlink:href="#i" transform="matrix(1,0,0,1,645,270.5) translate(64.35524691358025 18.544444444444444)"/><use xlink:href="#l" transform="matrix(1,0,0,1,485,304.5) translate(50.92993827160494 18.544444444444444)"/><use xlink:href="#m" transform="matrix(1,0,0,1,645,304.5) translate(48.65493827160494 18.544444444444444)"/><use xlink:href="#n" transform="matrix(1,0,0,1,485,338.5) translate(50.027777777777786 18.5)"/><use xlink:href="#e" transform="matrix(1,0,0,1,645,338.5) translate(48.94444444444446 18.5)"/><use xlink:href="#o" transform="matrix(1,0,0,1,485,372.5) translate(40.61111111111112 18.5)"/><use xlink:href="#e" transform="matrix(1,0,0,1,645,372.5) translate(48.94444444444446 18.5)"/><path d="M1120 181c0-3.3 2.7-6 6-6h328c3.3 0 6 2.7 6 6v130c0 3.3-2.7 6-6 6h-328c-3.3 0-6-2.7-6-6z" fill="#fff"/><path d="M1120 181c0-3.3 2.7-6 6-6h328c3.3 0 6 2.7 6 6v130c0 3.3-2.7 6-6 6h-328c-3.3 0-6-2.7-6-6zM1120 215h340M1290 215v102" stroke="#5e5e5e" stroke-width="3" fill="none"/><use xlink:href="#p" transform="matrix(1,0,0,1,1130,175) translate(59.475308641975346 24.444444444444443)"/><use xlink:href="#q" transform="matrix(1,0,0,1,1125,217.5) translate(72.25 18.5)"/><use xlink:href="#c" transform="matrix(1,0,0,1,1295,217.5) translate(69.47222222222223 18.5)"/><use xlink:href="#n" transform="matrix(1,0,0,1,1125,251.5) translate(55.027777777777786 18.5)"/><use xlink:href="#e" transform="matrix(1,0,0,1,1295,251.5) translate(53.94444444444446 18.5)"/><use xlink:href="#r" transform="matrix(1,0,0,1,1125,285.5) translate(43.36111111111112 18.5)"/><use xlink:href="#e" transform="matrix(1,0,0,1,1295,285.5) translate(53.94444444444446 18.5)"/><path d="M820 446c0-3.3 2.7-6 6-6h288c3.3 0 6 2.7 6 6v160c0 3.3-2.7 6-6 6H826c-3.3 0-6-2.7-6-6z" fill="#fff"/><path d="M820 446c0-3.3 2.7-6 6-6h288c3.3 0 6 2.7 6 6v160c0 3.3-2.7 6-6 6H826c-3.3 0-6-2.7-6-6zM820 480h300M970 480v132" stroke="#5e5e5e" stroke-width="3" fill="none"/><use xlink:href="#s" transform="matrix(1,0,0,1,830,440) translate(87.25925925925927 24.266666666666666)"/><use xlink:href="#t" transform="matrix(1,0,0,1,825,482.5) translate(7.861111111111114 18.5)"/><use xlink:href="#c" transform="matrix(1,0,0,1,975,482.5) translate(59.47222222222223 18.5)"/><use xlink:href="#u" transform="matrix(1,0,0,1,825,516.5) translate(17.86111111111113 18.5)"/><use xlink:href="#c" transform="matrix(1,0,0,1,975,516.5) translate(59.47222222222223 18.5)"/><use xlink:href="#v" transform="matrix(1,0,0,1,825,550.5) translate(20.574999999999996 17.1)"/><use xlink:href="#w" transform="matrix(1,0,0,1,975,550.5) translate(60.525 17.1)"/><use xlink:href="#x" transform="matrix(1,0,0,1,825,582.5) translate(50.555555555555564 17.5)"/><use xlink:href="#x" transform="matrix(1,0,0,1,975,582.5) translate(50.555555555555564 17.5)"/><path d="M458.5 216.4h-14c-3.3 0-6 2.68-6 6V491c0 3.3 2.7 6 6 6h355.18" stroke="#5e5e5e" stroke-width="2" fill="none"/><path d="M458.5 206.4v20M478.5 216.4h-20M818.05 507l-20-10 20-10M818.05 497h-20" stroke="#5e5e5e" stroke-width="2" fill="#fff"/><path d="M1098.5 231.88h-14c-3.3 0-6 2.68-6 6V372.5c0 3.3 2.7 6 6 6h71c3.3 0 6 2.7 6 6V525c0 3.3-2.7 6-6 6h-15.18" stroke="#5e5e5e" stroke-width="2" fill="none"/><path d="M1098.5 221.88v20M1118.5 231.88h-20M1121.95 521l20 10-20 10M1121.95 531h20" stroke="#5e5e5e" stroke-width="2" fill="#fff"/><defs><path fill="#333" d="M205 0l-28-72H64L36 0H1l101-248h38L239 0h-34zm-38-99l-47-123c-12 45-31 82-46 123h93" id="y"/><path fill="#333" d="M85-194c31 0 48 13 60 33l-1-100h32l1 261h-30c-2-10 0-23-3-31C134-8 116 4 85 4 32 4 16-35 15-94c0-66 23-100 70-100zm9 24c-40 0-46 34-46 75 0 40 6 74 45 74 42 0 51-32 51-76 0-42-9-74-50-73" id="z"/><path fill="#333" d="M210-169c-67 3-38 105-44 169h-31v-121c0-29-5-50-35-48C34-165 62-65 56 0H25l-1-190h30c1 10-1 24 2 32 10-44 99-50 107 0 11-21 27-35 58-36 85-2 47 119 55 194h-31v-121c0-29-5-49-35-48" id="A"/><path fill="#333" d="M24-231v-30h32v30H24zM24 0v-190h32V0H24" id="B"/><path fill="#333" d="M117-194c89-4 53 116 60 194h-32v-121c0-31-8-49-39-48C34-167 62-67 57 0H25l-1-190h30c1 10-1 24 2 32 11-22 29-35 61-36" id="C"/><g id="a"><use transform="matrix(0.061728395061728385,0,0,0.061728395061728385,0,0)" xlink:href="#y"/><use transform="matrix(0.061728395061728385,0,0,0.061728395061728385,14.814814814814813,0)" xlink:href="#z"/><use transform="matrix(0.061728395061728385,0,0,0.061728395061728385,27.16049382716049,0)" xlink:href="#A"/><use transform="matrix(0.061728395061728385,0,0,0.061728395061728385,45.61728395061728,0)" xlink:href="#B"/><use transform="matrix(0.061728395061728385,0,0,0.061728395061728385,50.49382716049382,0)" xlink:href="#C"/></g><path fill="#333" d="M33 0v-248h34V0H33" id="D"/><g id="b"><use transform="matrix(0.05555555555555554,0,0,0.05555555555555554,0,0)" xlink:href="#D"/><use transform="matrix(0.05555555555555554,0,0,0.05555555555555554,5.555555555555554,0)" xlink:href="#z"/></g><path fill="#333" d="M59-47c-2 24 18 29 38 22v24C64 9 27 4 27-40v-127H5v-23h24l9-43h21v43h35v23H59v120" id="E"/><g id="c"><use transform="matrix(0.05555555555555554,0,0,0.05555555555555554,0,0)" xlink:href="#B"/><use transform="matrix(0.05555555555555554,0,0,0.05555555555555554,4.3888888888888875,0)" xlink:href="#C"/><use transform="matrix(0.05555555555555554,0,0,0.05555555555555554,15.499999999999995,0)" xlink:href="#E"/></g><path fill="#333" d="M84 4C-5 8 30-112 23-190h32v120c0 31 7 50 39 49 72-2 45-101 50-169h31l1 190h-30c-1-10 1-25-2-33-11 22-28 36-60 37" id="F"/><path fill="#333" d="M135-143c-3-34-86-38-87 0 15 53 115 12 119 90S17 21 10-45l28-5c4 36 97 45 98 0-10-56-113-15-118-90-4-57 82-63 122-42 12 7 21 19 24 35" id="G"/><path fill="#333" d="M100-194c63 0 86 42 84 106H49c0 40 14 67 53 68 26 1 43-12 49-29l28 8c-11 28-37 45-77 45C44 4 14-33 15-96c1-61 26-98 85-98zm52 81c6-60-76-77-97-28-3 7-6 17-6 28h103" id="H"/><path fill="#333" d="M114-163C36-179 61-72 57 0H25l-1-190h30c1 12-1 29 2 39 6-27 23-49 58-41v29" id="I"/><g id="d"><use transform="matrix(0.05555555555555554,0,0,0.05555555555555554,0,0)" xlink:href="#F"/><use transform="matrix(0.05555555555555554,0,0,0.05555555555555554,11.111111111111107,0)" xlink:href="#G"/><use transform="matrix(0.05555555555555554,0,0,0.05555555555555554,21.111111111111104,0)" xlink:href="#H"/><use transform="matrix(0.05555555555555554,0,0,0.05555555555555554,32.222222222222214,0)" xlink:href="#I"/></g><path fill="#333" d="M185-189c-5-48-123-54-124 2 14 75 158 14 163 119 3 78-121 87-175 55-17-10-28-26-33-46l33-7c5 56 141 63 141-1 0-78-155-14-162-118-5-82 145-84 179-34 5 7 8 16 11 25" id="J"/><path fill="#333" d="M177-190C167-65 218 103 67 71c-23-6-38-20-44-43l32-5c15 47 100 32 89-28v-30C133-14 115 1 83 1 29 1 15-40 15-95c0-56 16-97 71-98 29-1 48 16 59 35 1-10 0-23 2-32h30zM94-22c36 0 50-32 50-73 0-42-14-75-50-75-39 0-46 34-46 75s6 73 46 73" id="K"/><g id="e"><use transform="matrix(0.05555555555555554,0,0,0.05555555555555554,0,0)" xlink:href="#J"/><use transform="matrix(0.05555555555555554,0,0,0.05555555555555554,13.333333333333329,0)" xlink:href="#E"/><use transform="matrix(0.05555555555555554,0,0,0.05555555555555554,18.888888888888882,0)" xlink:href="#I"/><use transform="matrix(0.05555555555555554,0,0,0.05555555555555554,25.499999999999993,0)" xlink:href="#B"/><use transform="matrix(0.05555555555555554,0,0,0.05555555555555554,29.88888888888888,0)" xlink:href="#C"/><use transform="matrix(0.05555555555555554,0,0,0.05555555555555554,40.999999999999986,0)" xlink:href="#K"/></g><path fill="#333" d="M115-194c55 1 70 41 70 98S169 2 115 4C84 4 66-9 55-30l1 105H24l-1-265h31l2 30c10-21 28-34 59-34zm-8 174c40 0 45-34 45-75s-6-73-45-74c-42 0-51 32-51 76 0 43 10 73 51 73" id="L"/><path fill="#333" d="M141-36C126-15 110 5 73 4 37 3 15-17 15-53c-1-64 63-63 125-63 3-35-9-54-41-54-24 1-41 7-42 31l-33-3c5-37 33-52 76-52 45 0 72 20 72 64v82c-1 20 7 32 28 27v20c-31 9-61-2-59-35zM48-53c0 20 12 33 32 33 41-3 63-29 60-74-43 2-92-5-92 41" id="M"/><path fill="#333" d="M206 0h-36l-40-164L89 0H53L-1-190h32L70-26l43-164h34l41 164 42-164h31" id="N"/><path fill="#333" d="M100-194c62-1 85 37 85 99 1 63-27 99-86 99S16-35 15-95c0-66 28-99 85-99zM99-20c44 1 53-31 53-75 0-43-8-75-51-75s-53 32-53 75 10 74 51 75" id="O"/><g id="f"><use transform="matrix(0.05555555555555554,0,0,0.05555555555555554,0,0)" xlink:href="#L"/><use transform="matrix(0.05555555555555554,0,0,0.05555555555555554,11.111111111111107,0)" xlink:href="#M"/><use transform="matrix(0.05555555555555554,0,0,0.05555555555555554,22.222222222222214,0)" xlink:href="#G"/><use transform="matrix(0.05555555555555554,0,0,0.05555555555555554,32.222222222222214,0)" xlink:href="#G"/><use transform="matrix(0.05555555555555554,0,0,0.05555555555555554,42.222222222222214,0)" xlink:href="#N"/><use transform="matrix(0.05555555555555554,0,0,0.05555555555555554,56.6111111111111,0)" xlink:href="#O"/><use transform="matrix(0.05555555555555554,0,0,0.05555555555555554,67.7222222222222,0)" xlink:href="#I"/><use transform="matrix(0.05555555555555554,0,0,0.05555555555555554,74.33333333333331,0)" xlink:href="#z"/></g><path fill="#333" d="M24 0v-261h32V0H24" id="P"/><path fill="#333" d="M179-190L93 31C79 59 56 82 12 73V49c39 6 53-20 64-50L1-190h34L92-34l54-156h33" id="Q"/><g id="g"><use transform="matrix(0.061728395061728385,0,0,0.061728395061728385,0,0)" xlink:href="#H"/><use transform="matrix(0.061728395061728385,0,0,0.061728395061728385,12.345679012345677,0)" xlink:href="#A"/><use transform="matrix(0.061728395061728385,0,0,0.061728395061728385,30.802469135802465,0)" xlink:href="#L"/><use transform="matrix(0.061728395061728385,0,0,0.061728395061728385,43.14814814814814,0)" xlink:href="#P"/><use transform="matrix(0.061728395061728385,0,0,0.061728395061728385,48.02469135802468,0)" xlink:href="#O"/><use transform="matrix(0.061728395061728385,0,0,0.061728395061728385,60.37037037037036,0)" xlink:href="#Q"/><use transform="matrix(0.061728395061728385,0,0,0.061728395061728385,71.48148148148147,0)" xlink:href="#H"/><use transform="matrix(0.061728395061728385,0,0,0.061728395061728385,83.82716049382714,0)" xlink:href="#H"/><use transform="matrix(0.061728395061728385,0,0,0.061728395061728385,96.1728395061728,0)" xlink:href="#z"/></g><path d="M24-231v-30h32v30H24zM24 0v-190h32V0H24" id="R"/><path d="M85-194c31 0 48 13 60 33l-1-100h32l1 261h-30c-2-10 0-23-3-31C134-8 116 4 85 4 32 4 16-35 15-94c0-66 23-100 70-100zm9 24c-40 0-46 34-46 75 0 40 6 74 45 74 42 0 51-32 51-76 0-42-9-74-50-73" id="S"/><g id="h"><use transform="matrix(0.05617283950617283,0,0,0.05617283950617283,0,0)" xlink:href="#R"/><use transform="matrix(0.05617283950617283,0,0,0.05617283950617283,4.4376543209876536,0)" xlink:href="#S"/></g><path d="M117-194c89-4 53 116 60 194h-32v-121c0-31-8-49-39-48C34-167 62-67 57 0H25l-1-190h30c1 10-1 24 2 32 11-22 29-35 61-36" id="T"/><path d="M59-47c-2 24 18 29 38 22v24C64 9 27 4 27-40v-127H5v-23h24l9-43h21v43h35v23H59v120" id="U"/><g id="i"><use transform="matrix(0.05617283950617283,0,0,0.05617283950617283,0,0)" xlink:href="#R"/><use transform="matrix(0.05617283950617283,0,0,0.05617283950617283,4.4376543209876536,0)" xlink:href="#T"/><use transform="matrix(0.05617283950617283,0,0,0.05617283950617283,15.672222222222222,0)" xlink:href="#U"/></g><path d="M84 4C-5 8 30-112 23-190h32v120c0 31 7 50 39 49 72-2 45-101 50-169h31l1 190h-30c-1-10 1-25-2-33-11 22-28 36-60 37" id="V"/><path d="M210-169c-67 3-38 105-44 169h-31v-121c0-29-5-50-35-48C34-165 62-65 56 0H25l-1-190h30c1 10-1 24 2 32 10-44 99-50 107 0 11-21 27-35 58-36 85-2 47 119 55 194h-31v-121c0-29-5-49-35-48" id="W"/><path d="M-5 72V49h209v23H-5" id="X"/><path d="M100-194c63 0 86 42 84 106H49c0 40 14 67 53 68 26 1 43-12 49-29l28 8c-11 28-37 45-77 45C44 4 14-33 15-96c1-61 26-98 85-98zm52 81c6-60-76-77-97-28-3 7-6 17-6 28h103" id="Y"/><path d="M115-194c55 1 70 41 70 98S169 2 115 4C84 4 66-9 55-30l1 105H24l-1-265h31l2 30c10-21 28-34 59-34zm-8 174c40 0 45-34 45-75s-6-73-45-74c-42 0-51 32-51 76 0 43 10 73 51 73" id="Z"/><path d="M24 0v-261h32V0H24" id="aa"/><path d="M100-194c62-1 85 37 85 99 1 63-27 99-86 99S16-35 15-95c0-66 28-99 85-99zM99-20c44 1 53-31 53-75 0-43-8-75-51-75s-53 32-53 75 10 74 51 75" id="ab"/><path d="M179-190L93 31C79 59 56 82 12 73V49c39 6 53-20 64-50L1-190h34L92-34l54-156h33" id="ac"/><g id="j"><use transform="matrix(0.05617283950617283,0,0,0.05617283950617283,0,0)" xlink:href="#T"/><use transform="matrix(0.05617283950617283,0,0,0.05617283950617283,11.234567901234566,0)" xlink:href="#V"/><use transform="matrix(0.05617283950617283,0,0,0.05617283950617283,22.469135802469133,0)" xlink:href="#W"/><use transform="matrix(0.05617283950617283,0,0,0.05617283950617283,39.26481481481481,0)" xlink:href="#X"/><use transform="matrix(0.05617283950617283,0,0,0.05617283950617283,50.49938271604938,0)" xlink:href="#Y"/><use transform="matrix(0.05617283950617283,0,0,0.05617283950617283,61.73395061728395,0)" xlink:href="#W"/><use transform="matrix(0.05617283950617283,0,0,0.05617283950617283,78.52962962962962,0)" xlink:href="#Z"/><use transform="matrix(0.05617283950617283,0,0,0.05617283950617283,89.7641975308642,0)" xlink:href="#aa"/><use transform="matrix(0.05617283950617283,0,0,0.05617283950617283,94.20185185185184,0)" xlink:href="#ab"/><use transform="matrix(0.05617283950617283,0,0,0.05617283950617283,105.43641975308641,0)" xlink:href="#ac"/><use transform="matrix(0.05617283950617283,0,0,0.05617283950617283,115.54753086419753,0)" xlink:href="#Y"/><use transform="matrix(0.05617283950617283,0,0,0.05617283950617283,126.7820987654321,0)" xlink:href="#Y"/><use transform="matrix(0.05617283950617283,0,0,0.05617283950617283,138.01666666666665,0)" xlink:href="#S"/></g><path d="M114-163C36-179 61-72 57 0H25l-1-190h30c1 12-1 29 2 39 6-27 23-49 58-41v29" id="ad"/><path d="M108 0H70L1-190h34L89-25l56-165h34" id="ae"/><path d="M141-36C126-15 110 5 73 4 37 3 15-17 15-53c-1-64 63-63 125-63 3-35-9-54-41-54-24 1-41 7-42 31l-33-3c5-37 33-52 76-52 45 0 72 20 72 64v82c-1 20 7 32 28 27v20c-31 9-61-2-59-35zM48-53c0 20 12 33 32 33 41-3 63-29 60-74-43 2-92-5-92 41" id="af"/><g id="k"><use transform="matrix(0.05617283950617283,0,0,0.05617283950617283,0,0)" xlink:href="#Z"/><use transform="matrix(0.05617283950617283,0,0,0.05617283950617283,11.234567901234566,0)" xlink:href="#ad"/><use transform="matrix(0.05617283950617283,0,0,0.05617283950617283,17.919135802469132,0)" xlink:href="#R"/><use transform="matrix(0.05617283950617283,0,0,0.05617283950617283,22.356790123456786,0)" xlink:href="#ae"/><use transform="matrix(0.05617283950617283,0,0,0.05617283950617283,32.4679012345679,0)" xlink:href="#af"/><use transform="matrix(0.05617283950617283,0,0,0.05617283950617283,43.70246913580246,0)" xlink:href="#U"/><use transform="matrix(0.05617283950617283,0,0,0.05617283950617283,49.319753086419745,0)" xlink:href="#Y"/><use transform="matrix(0.05617283950617283,0,0,0.05617283950617283,60.55432098765431,0)" xlink:href="#X"/><use transform="matrix(0.05617283950617283,0,0,0.05617283950617283,71.78888888888888,0)" xlink:href="#T"/><use transform="matrix(0.05617283950617283,0,0,0.05617283950617283,83.02345679012345,0)" xlink:href="#V"/><use transform="matrix(0.05617283950617283,0,0,0.05617283950617283,94.25802469135802,0)" xlink:href="#W"/></g><g id="l"><use transform="matrix(0.05617283950617283,0,0,0.05617283950617283,0,0)" xlink:href="#Y"/><use transform="matrix(0.05617283950617283,0,0,0.05617283950617283,11.234567901234566,0)" xlink:href="#W"/><use transform="matrix(0.05617283950617283,0,0,0.05617283950617283,28.030246913580243,0)" xlink:href="#af"/><use transform="matrix(0.05617283950617283,0,0,0.05617283950617283,39.26481481481481,0)" xlink:href="#R"/><use transform="matrix(0.05617283950617283,0,0,0.05617283950617283,43.70246913580247,0)" xlink:href="#aa"/></g><path d="M185-189c-5-48-123-54-124 2 14 75 158 14 163 119 3 78-121 87-175 55-17-10-28-26-33-46l33-7c5 56 141 63 141-1 0-78-155-14-162-118-5-82 145-84 179-34 5 7 8 16 11 25" id="ag"/><path d="M177-190C167-65 218 103 67 71c-23-6-38-20-44-43l32-5c15 47 100 32 89-28v-30C133-14 115 1 83 1 29 1 15-40 15-95c0-56 16-97 71-98 29-1 48 16 59 35 1-10 0-23 2-32h30zM94-22c36 0 50-32 50-73 0-42-14-75-50-75-39 0-46 34-46 75s6 73 46 73" id="ah"/><g id="m"><use transform="matrix(0.05617283950617283,0,0,0.05617283950617283,0,0)" xlink:href="#ag"/><use transform="matrix(0.05617283950617283,0,0,0.05617283950617283,13.48148148148148,0)" xlink:href="#U"/><use transform="matrix(0.05617283950617283,0,0,0.05617283950617283,19.098765432098762,0)" xlink:href="#ad"/><use transform="matrix(0.05617283950617283,0,0,0.05617283950617283,25.783333333333328,0)" xlink:href="#R"/><use transform="matrix(0.05617283950617283,0,0,0.05617283950617283,30.220987654320982,0)" xlink:href="#T"/><use transform="matrix(0.05617283950617283,0,0,0.05617283950617283,41.45555555555555,0)" xlink:href="#ah"/></g><g id="n"><use transform="matrix(0.05555555555555554,0,0,0.05555555555555554,0,0)" xlink:href="#C"/><use transform="matrix(0.05555555555555554,0,0,0.05555555555555554,11.111111111111107,0)" xlink:href="#M"/><use transform="matrix(0.05555555555555554,0,0,0.05555555555555554,22.222222222222214,0)" xlink:href="#A"/><use transform="matrix(0.05555555555555554,0,0,0.05555555555555554,38.83333333333332,0)" xlink:href="#H"/></g><g id="o"><use transform="matrix(0.05555555555555554,0,0,0.05555555555555554,0,0)" xlink:href="#L"/><use transform="matrix(0.05555555555555554,0,0,0.05555555555555554,11.111111111111107,0)" xlink:href="#O"/><use transform="matrix(0.05555555555555554,0,0,0.05555555555555554,22.222222222222214,0)" xlink:href="#G"/><use transform="matrix(0.05555555555555554,0,0,0.05555555555555554,32.222222222222214,0)" xlink:href="#B"/><use transform="matrix(0.05555555555555554,0,0,0.05555555555555554,36.6111111111111,0)" xlink:href="#E"/><use transform="matrix(0.05555555555555554,0,0,0.05555555555555554,42.16666666666666,0)" xlink:href="#B"/><use transform="matrix(0.05555555555555554,0,0,0.05555555555555554,46.55555555555554,0)" xlink:href="#O"/><use transform="matrix(0.05555555555555554,0,0,0.05555555555555554,57.66666666666665,0)" xlink:href="#C"/></g><path fill="#333" d="M212-179c-10-28-35-45-73-45-59 0-87 40-87 99 0 60 29 101 89 101 43 0 62-24 78-52l27 14C228-24 195 4 139 4 59 4 22-46 18-125c-6-104 99-153 187-111 19 9 31 26 39 46" id="ai"/><path fill="#333" d="M-5 72V49h209v23H-5" id="aj"/><path fill="#333" d="M160-131c35 5 61 23 61 61C221 17 115-2 30 0v-248c76 3 177-17 177 60 0 33-19 50-47 57zm-97-11c50-1 110 9 110-42 0-47-63-36-110-37v79zm0 115c55-2 124 14 124-45 0-56-70-42-124-44v89" id="ak"/><path fill="#333" d="M96-169c-40 0-48 33-48 73s9 75 48 75c24 0 41-14 43-38l32 2c-6 37-31 61-74 61-59 0-76-41-82-99-10-93 101-131 147-64 4 7 5 14 7 22l-32 3c-4-21-16-35-41-35" id="al"/><path fill="#333" d="M106-169C34-169 62-67 57 0H25v-261h32l-1 103c12-21 28-36 61-36 89 0 53 116 60 194h-32v-121c2-32-8-49-39-48" id="am"/><g id="p"><use transform="matrix(0.061728395061728385,0,0,0.061728395061728385,0,0)" xlink:href="#ai"/><use transform="matrix(0.061728395061728385,0,0,0.061728395061728385,15.987654320987652,0)" xlink:href="#O"/><use transform="matrix(0.061728395061728385,0,0,0.061728395061728385,28.33333333333333,0)" xlink:href="#A"/><use transform="matrix(0.061728395061728385,0,0,0.061728395061728385,46.79012345679011,0)" xlink:href="#L"/><use transform="matrix(0.061728395061728385,0,0,0.061728395061728385,59.13580246913579,0)" xlink:href="#M"/><use transform="matrix(0.061728395061728385,0,0,0.061728395061728385,71.48148148148147,0)" xlink:href="#C"/><use transform="matrix(0.061728395061728385,0,0,0.061728395061728385,83.82716049382714,0)" xlink:href="#Q"/><use transform="matrix(0.061728395061728385,0,0,0.061728395061728385,94.93827160493825,0)" xlink:href="#aj"/><use transform="matrix(0.061728395061728385,0,0,0.061728395061728385,107.28395061728392,0)" xlink:href="#ak"/><use transform="matrix(0.061728395061728385,0,0,0.061728395061728385,122.09876543209873,0)" xlink:href="#I"/><use transform="matrix(0.061728395061728385,0,0,0.061728395061728385,129.4444444444444,0)" xlink:href="#M"/><use transform="matrix(0.061728395061728385,0,0,0.061728395061728385,141.79012345679007,0)" xlink:href="#C"/><use transform="matrix(0.061728395061728385,0,0,0.061728395061728385,154.13580246913574,0)" xlink:href="#al"/><use transform="matrix(0.061728395061728385,0,0,0.061728395061728385,165.24691358024685,0)" xlink:href="#am"/><use transform="matrix(0.061728395061728385,0,0,0.061728395061728385,177.59259259259252,0)" xlink:href="#H"/><use transform="matrix(0.061728395061728385,0,0,0.061728395061728385,189.9382716049382,0)" xlink:href="#G"/></g><g id="q"><use transform="matrix(0.05555555555555554,0,0,0.05555555555555554,0,0)" xlink:href="#B"/><use transform="matrix(0.05555555555555554,0,0,0.05555555555555554,4.3888888888888875,0)" xlink:href="#z"/></g><g id="r"><use transform="matrix(0.05555555555555554,0,0,0.05555555555555554,0,0)" xlink:href="#y"/><use transform="matrix(0.05555555555555554,0,0,0.05555555555555554,13.333333333333329,0)" xlink:href="#z"/><use transform="matrix(0.05555555555555554,0,0,0.05555555555555554,24.444444444444436,0)" xlink:href="#I"/><use transform="matrix(0.05555555555555554,0,0,0.05555555555555554,31.055555555555546,0)" xlink:href="#H"/><use transform="matrix(0.05555555555555554,0,0,0.05555555555555554,42.16666666666665,0)" xlink:href="#H"/><use transform="matrix(0.05555555555555554,0,0,0.05555555555555554,53.27777777777776,0)" xlink:href="#G"/><use transform="matrix(0.05555555555555554,0,0,0.05555555555555554,63.27777777777776,0)" xlink:href="#G"/></g><g id="s"><use transform="matrix(0.059259259259259255,0,0,0.059259259259259255,0,0)" xlink:href="#M"/><use transform="matrix(0.059259259259259255,0,0,0.059259259259259255,11.851851851851851,0)" xlink:href="#E"/><use transform="matrix(0.059259259259259255,0,0,0.059259259259259255,17.77777777777778,0)" xlink:href="#E"/><use transform="matrix(0.059259259259259255,0,0,0.059259259259259255,23.703703703703702,0)" xlink:href="#H"/><use transform="matrix(0.059259259259259255,0,0,0.059259259259259255,35.55555555555556,0)" xlink:href="#C"/><use transform="matrix(0.059259259259259255,0,0,0.059259259259259255,47.407407407407405,0)" xlink:href="#z"/><use transform="matrix(0.059259259259259255,0,0,0.059259259259259255,59.25925925925925,0)" xlink:href="#M"/><use transform="matrix(0.059259259259259255,0,0,0.059259259259259255,71.1111111111111,0)" xlink:href="#C"/><use transform="matrix(0.059259259259259255,0,0,0.059259259259259255,82.96296296296295,0)" xlink:href="#al"/><use transform="matrix(0.059259259259259255,0,0,0.059259259259259255,93.62962962962962,0)" xlink:href="#H"/></g><g id="t"><use transform="matrix(0.05555555555555554,0,0,0.05555555555555554,0,0)" xlink:href="#B"/><use transform="matrix(0.05555555555555554,0,0,0.05555555555555554,4.3888888888888875,0)" xlink:href="#z"/><use transform="matrix(0.05555555555555554,0,0,0.05555555555555554,15.499999999999995,0)" xlink:href="#aj"/><use transform="matrix(0.05555555555555554,0,0,0.05555555555555554,26.6111111111111,0)" xlink:href="#H"/><use transform="matrix(0.05555555555555554,0,0,0.05555555555555554,37.72222222222221,0)" xlink:href="#A"/><use transform="matrix(0.05555555555555554,0,0,0.05555555555555554,54.333333333333314,0)" xlink:href="#L"/><use transform="matrix(0.05555555555555554,0,0,0.05555555555555554,65.44444444444443,0)" xlink:href="#P"/><use transform="matrix(0.05555555555555554,0,0,0.05555555555555554,69.83333333333331,0)" xlink:href="#O"/><use transform="matrix(0.05555555555555554,0,0,0.05555555555555554,80.94444444444443,0)" xlink:href="#Q"/><use transform="matrix(0.05555555555555554,0,0,0.05555555555555554,90.94444444444443,0)" xlink:href="#H"/><use transform="matrix(0.05555555555555554,0,0,0.05555555555555554,102.05555555555554,0)" xlink:href="#H"/><use transform="matrix(0.05555555555555554,0,0,0.05555555555555554,113.16666666666666,0)" xlink:href="#z"/></g><g id="u"><use transform="matrix(0.05555555555555554,0,0,0.05555555555555554,0,0)" xlink:href="#B"/><use transform="matrix(0.05555555555555554,0,0,0.05555555555555554,4.3888888888888875,0)" xlink:href="#z"/><use transform="matrix(0.05555555555555554,0,0,0.05555555555555554,15.499999999999995,0)" xlink:href="#aj"/><use transform="matrix(0.05555555555555554,0,0,0.05555555555555554,26.6111111111111,0)" xlink:href="#ai"/><use transform="matrix(0.05555555555555554,0,0,0.05555555555555554,40.999999999999986,0)" xlink:href="#ak"/><use transform="matrix(0.05555555555555554,0,0,0.05555555555555554,54.333333333333314,0)" xlink:href="#I"/><use transform="matrix(0.05555555555555554,0,0,0.05555555555555554,60.94444444444443,0)" xlink:href="#M"/><use transform="matrix(0.05555555555555554,0,0,0.05555555555555554,72.05555555555553,0)" xlink:href="#C"/><use transform="matrix(0.05555555555555554,0,0,0.05555555555555554,83.16666666666663,0)" xlink:href="#al"/><use transform="matrix(0.05555555555555554,0,0,0.05555555555555554,93.16666666666663,0)" xlink:href="#am"/></g><g id="v"><use transform="matrix(0.05,0,0,0.05,0,0)" xlink:href="#Z"/><use transform="matrix(0.05,0,0,0.05,10,0)" xlink:href="#ad"/><use transform="matrix(0.05,0,0,0.05,15.949999999999998,0)" xlink:href="#R"/><use transform="matrix(0.05,0,0,0.05,19.9,0)" xlink:href="#ae"/><use transform="matrix(0.05,0,0,0.05,28.899999999999995,0)" xlink:href="#af"/><use transform="matrix(0.05,0,0,0.05,38.9,0)" xlink:href="#U"/><use transform="matrix(0.05,0,0,0.05,43.9,0)" xlink:href="#Y"/><use transform="matrix(0.05,0,0,0.05,53.900000000000006,0)" xlink:href="#X"/><use transform="matrix(0.05,0,0,0.05,63.900000000000006,0)" xlink:href="#T"/><use transform="matrix(0.05,0,0,0.05,73.9,0)" xlink:href="#V"/><use transform="matrix(0.05,0,0,0.05,83.9,0)" xlink:href="#W"/></g><g id="w"><use transform="matrix(0.05,0,0,0.05,0,0)" xlink:href="#R"/><use transform="matrix(0.05,0,0,0.05,3.95,0)" xlink:href="#T"/><use transform="matrix(0.05,0,0,0.05,13.949999999999998,0)" xlink:href="#U"/></g><g id="x"><use transform="matrix(0.05555555555555554,0,0,0.05555555555555554,0,0)" xlink:href="#z"/><use transform="matrix(0.05555555555555554,0,0,0.05555555555555554,11.111111111111107,0)" xlink:href="#M"/><use transform="matrix(0.05555555555555554,0,0,0.05555555555555554,22.222222222222214,0)" xlink:href="#E"/><use transform="matrix(0.05555555555555554,0,0,0.05555555555555554,27.777777777777768,0)" xlink:href="#H"/></g></defs></g></svg>